<?xml version="1.0" encoding="utf-8"?>
<!-- Generator: Adobe Illustrator 16.0.0, SVG Export Plug-In . SVG Version: 6.00 Build 0)  -->
<!DOCTYPE svg PUBLIC "-//W3C//DTD SVG 1.1//EN" "http://www.w3.org/Graphics/SVG/1.1/DTD/svg11.dtd">
<svg version="1.1" id="Layer_1" xmlns="http://www.w3.org/2000/svg" xmlns:xlink="http://www.w3.org/1999/xlink" x="0px" y="0px"
	 width="237.5px" height="71.5px" viewBox="0 0 237.5 71.5" enable-background="new 0 0 237.5 71.5" xml:space="preserve">
<g>
	<rect x="-21.041" y="-17.893" fill="#FFFFFF" width="187.988" height="109.036"/>
	<rect x="2.565" y="5.816" fill="#FFFFFF" width="140.917" height="61.808"/>
	<g>
		<radialGradient id="SVGID_1_" cx="35.2231" cy="37.7598" r="25.2104" gradientUnits="userSpaceOnUse">
			<stop  offset="0.184" style="stop-color:#80C342"/>
			<stop  offset="0.2691" style="stop-color:#7DBB44"/>
			<stop  offset="0.3975" style="stop-color:#75A749"/>
			<stop  offset="0.5534" style="stop-color:#678550"/>
			<stop  offset="0.7307" style="stop-color:#55555B"/>
			<stop  offset="0.9237" style="stop-color:#3D1A69"/>
			<stop  offset="1" style="stop-color:#33006F"/>
		</radialGradient>
		<path fill="url(#SVGID_1_)" d="M56.365,18.855c-1.38-0.508-2.61-0.854-3.69-1.038c-1.078-0.178-2.093-0.218-3.045-0.107
			c-0.952,0.108-1.963,0.381-3.031,0.817c-1.067,0.434-2.073,1.053-3.021,1.852c-0.706,0.6-1.358,1.279-1.948,2.042
			c-0.932-0.153-1.533-0.627-1.533-0.627c-0.475-0.374-0.91-0.807-1.311-1.294l-8.369-10.233c-0.497-0.603-0.851-1.097-1.063-1.476
			c0,0-1.097-1.69-0.812-2.974l-4.78,6.055c-0.913,1.157-1.621,2.218-2.125,3.189c-0.506,0.967-0.856,1.924-1.045,2.866
			c-0.192,0.938-0.244,1.983-0.16,3.132c0.083,1.146,0.359,2.297,0.829,3.449c0.364,0.89,0.833,1.748,1.402,2.573
			c-0.406,0.717-1.134,1.174-1.134,1.174c-0.502,0.337-1.048,0.617-1.636,0.846L7.573,33.899c-0.726,0.283-1.301,0.467-1.729,0.554
			c0,0-1.985,0.448-3.08-0.149l4.285,6.417c0.816,1.223,1.608,2.227,2.374,3.009s1.564,1.406,2.401,1.877
			c0.834,0.473,1.811,0.846,2.932,1.121c1.117,0.275,2.295,0.369,3.53,0.278c0.942-0.071,1.884-0.243,2.824-0.521
			c0.598,0.628,0.827,1.422,0.827,1.422c0.162,0.583,0.263,1.188,0.3,1.815l0.752,13.201c0.047,0.777,0.044,1.383-0.007,1.816
			c0,0-0.012,2.346-1.09,2.885l7.427-2.094c1.417-0.396,2.615-0.838,3.594-1.322c0.979-0.49,1.82-1.057,2.529-1.705
			c0.706-0.65,1.36-1.464,1.97-2.443c0.607-0.979,1.06-2.068,1.355-3.273c0.221-0.91,0.349-1.855,0.379-2.826
			c0.787-0.382,1.606-0.365,1.606-0.365c0.605,0.025,1.21,0.119,1.821,0.275l12.789,3.361c0.755,0.196,1.329,0.389,1.725,0.568
			c0,0,2.123,0.671,2.403,1.931l0.308-7.709c0.059-1.471,0.01-2.747-0.153-3.83c-0.16-1.079-0.44-2.056-0.839-2.93
			c-0.398-0.873-0.969-1.749-1.712-2.63s-1.641-1.648-2.696-2.3c-0.775-0.479-1.609-0.883-2.495-1.205
			c-0.157-0.986,0.074-1.671,0.074-1.671c0.212-0.565,0.485-1.116,0.827-1.645l7.144-11.126c0.423-0.654,0.782-1.143,1.078-1.461
			c0,0,1.178-1.813,2.578-1.692L56.365,18.855z M44.191,38.413c-0.831,0.199-1.555,0.502-2.167,0.908
			c-0.61,0.41-1.1,0.875-1.463,1.393c-0.367,0.519-0.662,1.001-0.888,1.451c-0.33,0.695-0.583,1.51-0.755,2.442
			c-0.174,0.935-0.29,2.149-0.349,3.638l-0.035,0.871c-0.007-0.024-0.012-0.047-0.02-0.07c-0.273-0.975-0.632-1.826-1.078-2.562
			c-0.442-0.73-0.954-1.321-1.532-1.778c-0.578-0.453-1.171-0.775-1.776-0.962c-0.605-0.187-1.156-0.319-1.656-0.396
			c-0.765-0.102-1.616-0.086-2.558,0.036c-0.94,0.123-2.128,0.389-3.564,0.792l-0.839,0.234c0.02-0.013,0.042-0.025,0.062-0.039
			c0.841-0.562,1.542-1.166,2.098-1.816c0.559-0.646,0.967-1.316,1.22-2.007c0.253-0.688,0.376-1.351,0.369-1.987
			c-0.01-0.633-0.057-1.198-0.135-1.695c-0.143-0.76-0.418-1.564-0.827-2.42c-0.408-0.858-1.028-1.908-1.855-3.149l-0.487-0.727
			c0.02,0.015,0.039,0.033,0.059,0.05c0.794,0.625,1.589,1.104,2.376,1.437c0.79,0.327,1.552,0.509,2.288,0.536
			c0.733,0.032,1.402-0.059,2.002-0.261c0.601-0.207,1.125-0.423,1.572-0.657c0.677-0.369,1.358-0.878,2.049-1.535
			c0.687-0.649,1.493-1.565,2.418-2.733l0.542-0.688c-0.008,0.024-0.02,0.049-0.03,0.074c-0.349,0.947-0.561,1.849-0.63,2.701
			c-0.071,0.853-0.007,1.634,0.194,2.342c0.199,0.708,0.487,1.316,0.869,1.825c0.379,0.504,0.75,0.935,1.107,1.294
			c0.561,0.529,1.257,1.016,2.091,1.471c0.836,0.453,1.951,0.94,3.353,1.456l0.816,0.303c-0.027-0.005-0.049-0.008-0.074-0.008
			C45.947,38.14,45.025,38.216,44.191,38.413z"/>
		<g>
			<defs>
				<path id="SVGID_2_" d="M56.365,18.855c-1.38-0.508-2.61-0.854-3.69-1.038c-1.078-0.178-2.093-0.218-3.045-0.107
					c-0.952,0.108-1.963,0.381-3.031,0.817c-1.067,0.434-2.073,1.053-3.021,1.852c-0.706,0.6-1.358,1.279-1.948,2.042
					c-0.932-0.153-1.533-0.627-1.533-0.627c-0.475-0.374-0.91-0.807-1.311-1.294l-8.369-10.233
					c-0.497-0.603-0.851-1.097-1.063-1.476c0,0-1.097-1.69-0.812-2.974l-4.78,6.055c-0.913,1.157-1.621,2.218-2.125,3.189
					c-0.506,0.967-0.856,1.924-1.045,2.866c-0.192,0.938-0.244,1.983-0.16,3.132c0.083,1.146,0.359,2.297,0.829,3.449
					c0.364,0.89,0.833,1.748,1.402,2.573c-0.406,0.717-1.134,1.174-1.134,1.174c-0.502,0.337-1.048,0.617-1.636,0.846L7.573,33.899
					c-0.726,0.283-1.301,0.467-1.729,0.554c0,0-1.985,0.448-3.08-0.149l4.285,6.417c0.816,1.223,1.608,2.227,2.374,3.009
					s1.564,1.406,2.401,1.877c0.834,0.473,1.811,0.846,2.932,1.121c1.117,0.275,2.295,0.369,3.53,0.278
					c0.942-0.071,1.884-0.243,2.824-0.521c0.598,0.628,0.827,1.422,0.827,1.422c0.162,0.583,0.263,1.188,0.3,1.815l0.752,13.201
					c0.047,0.777,0.044,1.383-0.007,1.816c0,0-0.012,2.346-1.09,2.885l7.427-2.094c1.417-0.396,2.615-0.838,3.594-1.322
					c0.979-0.49,1.82-1.057,2.529-1.705c0.706-0.65,1.36-1.464,1.97-2.443c0.607-0.979,1.06-2.068,1.355-3.273
					c0.221-0.91,0.349-1.855,0.379-2.826c0.787-0.382,1.606-0.365,1.606-0.365c0.605,0.025,1.21,0.119,1.821,0.275l12.789,3.361
					c0.755,0.196,1.329,0.389,1.725,0.568c0,0,2.123,0.671,2.403,1.931l0.308-7.709c0.059-1.471,0.01-2.747-0.153-3.83
					c-0.16-1.079-0.44-2.056-0.839-2.93c-0.398-0.873-0.969-1.749-1.712-2.63s-1.641-1.648-2.696-2.3
					c-0.775-0.479-1.609-0.883-2.495-1.205c-0.157-0.986,0.074-1.671,0.074-1.671c0.212-0.565,0.485-1.116,0.827-1.645l7.144-11.126
					c0.423-0.654,0.782-1.143,1.078-1.461c0,0,1.178-1.813,2.578-1.692L56.365,18.855z M44.191,38.413
					c-0.831,0.199-1.555,0.502-2.167,0.908c-0.61,0.41-1.1,0.875-1.463,1.393c-0.367,0.519-0.662,1.001-0.888,1.451
					c-0.33,0.695-0.583,1.51-0.755,2.442c-0.174,0.935-0.29,2.149-0.349,3.638l-0.035,0.871c-0.007-0.024-0.012-0.047-0.02-0.07
					c-0.273-0.975-0.632-1.826-1.078-2.562c-0.442-0.73-0.954-1.321-1.532-1.778c-0.578-0.453-1.171-0.775-1.776-0.962
					c-0.605-0.187-1.156-0.319-1.656-0.396c-0.765-0.102-1.616-0.086-2.558,0.036c-0.94,0.123-2.128,0.389-3.564,0.792l-0.839,0.234
					c0.02-0.013,0.042-0.025,0.062-0.039c0.841-0.562,1.542-1.166,2.098-1.816c0.559-0.646,0.967-1.316,1.22-2.007
					c0.253-0.688,0.376-1.351,0.369-1.987c-0.01-0.633-0.057-1.198-0.135-1.695c-0.143-0.76-0.418-1.564-0.827-2.42
					c-0.408-0.858-1.028-1.908-1.855-3.149l-0.487-0.727c0.02,0.015,0.039,0.033,0.059,0.05c0.794,0.625,1.589,1.104,2.376,1.437
					c0.79,0.327,1.552,0.509,2.288,0.536c0.733,0.032,1.402-0.059,2.002-0.261c0.601-0.207,1.125-0.423,1.572-0.657
					c0.677-0.369,1.358-0.878,2.049-1.535c0.687-0.649,1.493-1.565,2.418-2.733l0.542-0.688c-0.008,0.024-0.02,0.049-0.03,0.074
					c-0.349,0.947-0.561,1.849-0.63,2.701c-0.071,0.853-0.007,1.634,0.194,2.342c0.199,0.708,0.487,1.316,0.869,1.825
					c0.379,0.504,0.75,0.935,1.107,1.294c0.561,0.529,1.257,1.016,2.091,1.471c0.836,0.453,1.951,0.94,3.353,1.456l0.816,0.301
					c-0.027-0.003-0.052-0.006-0.074-0.006C45.947,38.14,45.025,38.216,44.191,38.413z"/>
			</defs>
			<clipPath id="SVGID_3_">
				<use xlink:href="#SVGID_2_"  overflow="visible"/>
			</clipPath>
			<g opacity="0.51" clip-path="url(#SVGID_3_)">
				<g>
					<g>
						<radialGradient id="SVGID_4_" cx="35.3916" cy="38.5625" r="35.0376" gradientUnits="userSpaceOnUse">
							<stop  offset="0.2331" style="stop-color:#FFE100"/>
							<stop  offset="0.7546" style="stop-color:#0089C7"/>
						</radialGradient>
						<path fill="url(#SVGID_4_)" d="M43.751,72.728l-5.904,1.663l-8.765-31.149l5.727-1.611
							c7.269-2.046,14.088,2.071,16.865,11.944C54.725,64.411,51.286,70.61,43.751,72.728z"/>
					</g>
				</g>
				<g>
					<g>
						<radialGradient id="SVGID_5_" cx="35.3911" cy="38.563" r="35.0363" gradientUnits="userSpaceOnUse">
							<stop  offset="0.2331" style="stop-color:#FFE100"/>
							<stop  offset="0.7546" style="stop-color:#0089C7"/>
						</radialGradient>
						<path fill="url(#SVGID_5_)" d="M70.763,40.608l-0.243,6.127l-32.333-1.289l0.236-5.945c0.3-7.544,6.327-12.757,16.57-12.351
							C66.244,27.601,71.075,32.785,70.763,40.608z"/>
					</g>
				</g>
				<g>
					<g>
						<radialGradient id="SVGID_6_" cx="35.3906" cy="38.564" r="35.0353" gradientUnits="userSpaceOnUse">
							<stop  offset="0.2331" style="stop-color:#FFE100"/>
							<stop  offset="0.7546" style="stop-color:#0089C7"/>
						</radialGradient>
						<path fill="url(#SVGID_6_)" d="M48.56,4.988l5.751,2.125L43.094,37.468l-5.582-2.064c-7.082-2.616-10.177-9.958-6.625-19.577
							C34.794,5.269,41.217,2.275,48.56,4.988z"/>
					</g>
				</g>
				<g>
					<g>
						<radialGradient id="SVGID_7_" cx="35.3916" cy="38.5635" r="35.0446" gradientUnits="userSpaceOnUse">
							<stop  offset="0.2331" style="stop-color:#FFE100"/>
							<stop  offset="0.7546" style="stop-color:#0089C7"/>
						</radialGradient>
						<path fill="url(#SVGID_7_)" d="M7.824,15.101l3.798-4.814l25.403,20.045l-3.688,4.671c-4.679,5.931-12.617,6.603-20.666,0.251
							C3.836,28.278,2.976,21.243,7.824,15.101z"/>
					</g>
				</g>
				<g>
					<g>
						<radialGradient id="SVGID_8_" cx="35.3901" cy="38.562" r="35.0365" gradientUnits="userSpaceOnUse">
							<stop  offset="0.2331" style="stop-color:#FFE100"/>
							<stop  offset="0.7546" style="stop-color:#0089C7"/>
						</radialGradient>
						<path fill="url(#SVGID_8_)" d="M4.853,56.967l-3.407-5.104l26.916-17.962l3.306,4.953c4.189,6.279,2.378,14.037-6.15,19.727
							C16.153,64.829,9.197,63.476,4.853,56.967z"/>
					</g>
				</g>
			</g>
		</g>
		<path fill="none" d="M44.191,38.413c-0.831,0.199-1.555,0.502-2.167,0.908c-0.61,0.41-1.1,0.875-1.463,1.393
			c-0.367,0.519-0.662,1.001-0.888,1.451c-0.33,0.695-0.583,1.51-0.755,2.442c-0.174,0.935-0.29,2.149-0.349,3.638l-0.035,0.871
			c-0.007-0.024-0.012-0.047-0.02-0.07c-0.273-0.975-0.632-1.826-1.078-2.562c-0.442-0.73-0.954-1.321-1.532-1.778
			c-0.578-0.453-1.171-0.775-1.776-0.962c-0.605-0.187-1.156-0.319-1.656-0.396c-0.765-0.102-1.616-0.086-2.558,0.036
			c-0.94,0.123-2.128,0.389-3.564,0.792l-0.839,0.234c0.02-0.013,0.042-0.025,0.062-0.039c0.841-0.562,1.542-1.166,2.098-1.816
			c0.559-0.646,0.967-1.316,1.22-2.007c0.253-0.688,0.376-1.351,0.369-1.987c-0.01-0.633-0.057-1.198-0.135-1.695
			c-0.143-0.76-0.418-1.564-0.827-2.42c-0.408-0.858-1.028-1.908-1.855-3.149l-0.484-0.723c0.02,0.014,0.037,0.03,0.057,0.047
			c0.794,0.625,1.589,1.104,2.376,1.437c0.79,0.327,1.552,0.509,2.288,0.536c0.733,0.032,1.402-0.059,2.002-0.261
			c0.601-0.207,1.125-0.423,1.572-0.657c0.677-0.369,1.358-0.878,2.049-1.535c0.687-0.649,1.493-1.565,2.418-2.733l0.539-0.684
			c-0.008,0.022-0.018,0.044-0.027,0.069c-0.349,0.947-0.561,1.849-0.63,2.701c-0.071,0.853-0.007,1.634,0.194,2.342
			c0.199,0.708,0.487,1.316,0.869,1.825c0.379,0.504,0.75,0.935,1.107,1.294c0.561,0.529,1.257,1.016,2.091,1.471
			c0.836,0.453,1.951,0.94,3.353,1.456l0.816,0.303c-0.027-0.005-0.049-0.008-0.074-0.008C45.947,38.14,45.025,38.216,44.191,38.413
			z"/>
		<g>
			<defs>
				<path id="SVGID_9_" d="M56.365,18.855c-1.38-0.508-2.61-0.854-3.69-1.038c-1.078-0.178-2.093-0.218-3.045-0.107
					c-0.952,0.108-1.963,0.381-3.031,0.817c-1.067,0.434-2.073,1.053-3.021,1.852c-0.706,0.6-1.358,1.279-1.948,2.042
					c-0.932-0.153-1.533-0.627-1.533-0.627c-0.475-0.374-0.91-0.807-1.311-1.294l-8.369-10.233
					c-0.497-0.603-0.851-1.097-1.063-1.476c0,0-1.097-1.69-0.812-2.974l-4.78,6.055c-0.913,1.157-1.621,2.218-2.125,3.189
					c-0.506,0.967-0.856,1.924-1.045,2.866c-0.192,0.938-0.244,1.983-0.16,3.132c0.083,1.146,0.359,2.297,0.829,3.449
					c0.364,0.89,0.833,1.748,1.402,2.573c-0.406,0.717-1.134,1.174-1.134,1.174c-0.502,0.337-1.048,0.617-1.636,0.846L7.573,33.899
					c-0.726,0.283-1.301,0.467-1.729,0.554c0,0-1.985,0.448-3.08-0.149l4.285,6.417c0.816,1.223,1.608,2.227,2.374,3.009
					s1.564,1.406,2.401,1.877c0.834,0.473,1.811,0.846,2.932,1.121c1.117,0.275,2.295,0.369,3.53,0.278
					c0.942-0.071,1.884-0.243,2.824-0.521c0.598,0.628,0.827,1.422,0.827,1.422c0.162,0.583,0.263,1.188,0.3,1.815l0.752,13.201
					c0.047,0.777,0.044,1.383-0.007,1.816c0,0-0.012,2.346-1.09,2.885l7.427-2.094c1.417-0.396,2.615-0.838,3.594-1.322
					c0.979-0.49,1.82-1.057,2.529-1.705c0.706-0.65,1.36-1.464,1.97-2.443c0.607-0.979,1.06-2.068,1.355-3.273
					c0.221-0.91,0.349-1.855,0.379-2.826c0.787-0.382,1.606-0.365,1.606-0.365c0.605,0.025,1.21,0.119,1.821,0.275l12.789,3.361
					c0.755,0.196,1.329,0.389,1.725,0.568c0,0,2.123,0.671,2.403,1.931l0.308-7.709c0.059-1.471,0.01-2.747-0.153-3.83
					c-0.16-1.079-0.44-2.056-0.839-2.93c-0.398-0.873-0.969-1.749-1.712-2.63s-1.641-1.648-2.696-2.3
					c-0.775-0.479-1.609-0.883-2.495-1.205c-0.157-0.986,0.074-1.671,0.074-1.671c0.212-0.565,0.485-1.116,0.827-1.645l7.144-11.126
					c0.423-0.654,0.782-1.143,1.078-1.461c0,0,1.178-1.813,2.578-1.692L56.365,18.855z M44.191,38.413
					c-0.831,0.199-1.555,0.502-2.167,0.908c-0.61,0.41-1.1,0.875-1.463,1.393c-0.367,0.519-0.662,1.001-0.888,1.451
					c-0.33,0.695-0.583,1.51-0.755,2.442c-0.174,0.935-0.29,2.149-0.349,3.638l-0.035,0.871c-0.007-0.024-0.012-0.047-0.02-0.07
					c-0.273-0.975-0.632-1.826-1.078-2.562c-0.442-0.73-0.954-1.321-1.532-1.778c-0.578-0.453-1.171-0.775-1.776-0.962
					c-0.605-0.187-1.156-0.319-1.656-0.396c-0.765-0.102-1.616-0.086-2.558,0.036c-0.94,0.123-2.128,0.389-3.564,0.792l-0.839,0.234
					c0.02-0.013,0.042-0.025,0.062-0.039c0.841-0.562,1.542-1.166,2.098-1.816c0.559-0.646,0.967-1.316,1.22-2.007
					c0.253-0.688,0.376-1.351,0.369-1.987c-0.01-0.633-0.057-1.198-0.135-1.695c-0.143-0.76-0.418-1.564-0.827-2.42
					c-0.408-0.858-1.028-1.908-1.855-3.149l-0.487-0.727c0.02,0.015,0.039,0.033,0.059,0.05c0.794,0.625,1.589,1.104,2.376,1.437
					c0.79,0.327,1.552,0.509,2.288,0.536c0.733,0.032,1.402-0.059,2.002-0.261c0.601-0.207,1.125-0.423,1.572-0.657
					c0.677-0.369,1.358-0.878,2.049-1.535c0.687-0.649,1.493-1.565,2.418-2.733l0.542-0.688c-0.008,0.024-0.02,0.049-0.03,0.074
					c-0.349,0.947-0.561,1.849-0.63,2.701c-0.071,0.853-0.007,1.634,0.194,2.342c0.199,0.708,0.487,1.316,0.869,1.825
					c0.379,0.504,0.75,0.935,1.107,1.294c0.561,0.529,1.257,1.016,2.091,1.471c0.836,0.453,1.951,0.94,3.353,1.456l0.816,0.301
					c-0.027-0.003-0.052-0.006-0.074-0.006C45.947,38.14,45.025,38.216,44.191,38.413z"/>
			</defs>
			<clipPath id="SVGID_10_">
				<use xlink:href="#SVGID_9_"  overflow="visible"/>
			</clipPath>
			<g opacity="0.82" clip-path="url(#SVGID_10_)">
				<g>
					<path fill="#C4D600" d="M38.359,41.122l-0.172,4.324l9.653,0.384C45.273,42.698,41.953,41.112,38.359,41.122z"/>
				</g>
				<g>
					<path fill="#C4D600" d="M39.038,35.965l4.057,1.503l3.35-9.062C43.599,29.518,40.391,31.753,39.038,35.965z"/>
				</g>
				<g>
					<path fill="#C4D600" d="M34.344,33.73l2.681-3.398l-7.584-5.985C29.678,28.387,31.429,31.624,34.344,33.73z"/>
				</g>
				<g>
					<path fill="#C4D600" d="M33.247,42.071l-4.165,1.171l2.617,9.3C33.882,49.135,34.366,45.488,33.247,42.071z"/>
				</g>
				<g>
					<path fill="#C4D600" d="M30.765,37.5l-2.403-3.599l-8.034,5.365C24.244,40.29,27.86,39.621,30.765,37.5z"/>
				</g>
			</g>
		</g>
		<text transform="matrix(1 0 0 1 72.9536 31.75)"><tspan x="0" y="0" fill="#454545" font-family="'DIN-Bold'" font-size="14">Group Human Resources</tspan><tspan x="0" y="16.8" fill="#454545" font-family="'DIN-Light'" font-size="14">Online </tspan><tspan x="43.119" y="16.8" fill="#454545" font-family="'DIN-Bold'" font-size="14">Form</tspan><tspan x="77.615" y="16.8" fill="#454545" font-family="'DIN-Light'" font-size="14"> Center</tspan></text>
	</g>
</g>
</svg>
